<?xml version="1.0" encoding="UTF-8" standalone="no"?>
<svg width="159px" height="65px" viewBox="0 0 159 65" version="1.1" xmlns="http://www.w3.org/2000/svg" xmlns:xlink="http://www.w3.org/1999/xlink">
    <!-- Generator: Sketch 3.8.3 (29802) - http://www.bohemiancoding.com/sketch -->
    <title>tag1_wht</title>
    <desc>Created with Sketch.</desc>
    <defs></defs>
    <g id="Page-1" stroke="none" stroke-width="1" fill="none" fill-rule="evenodd">
        <g id="A4" transform="translate(-163.000000, -316.000000)" fill="#FFFFFF">
            <g id="tag1_wht" transform="translate(163.000000, 316.000000)">
                <polygon id="Shape" points="34 52.109897 34 0 40.3945406 0 40.3945406 12.8692134 49.0037868 12.8692134 49.0037868 19.2677606 40.3945406 19.2677606 40.3945406 52.109897"></polygon>
                <path d="M50,35.2767205 C50,31.7949813 50.7652614,30.3285641 52.2877711,28.2210902 C54.010611,25.8211341 56.542785,24.6191528 59.8842931,24.6191528 L75.8225654,24.6191528 L75.8225654,22.0108533 C75.8225654,21.3137042 75.574156,20.7047003 75.0813436,20.1838417 C74.5885313,19.6629831 74.0236,19.3985472 73.3825433,19.3985472 L53,19.3985472 L53,13 L72.8737046,13 C77.9260327,13 80.9910851,15.379923 82.0688617,20.1357625 C82.1650202,20.9210569 82.2171061,21.5100278 82.2171061,21.8986684 L82.2171061,42.3804301 C82.2171061,44.1473427 81.7483333,45.7940571 80.8188011,47.3085536 C78.7553999,50.5939692 76.0829947,52.236677 72.8015857,52.236677 L59.9283657,52.236677 C58.0132088,52.236677 56.1541444,51.5755873 54.3391526,50.2494012 C52.5241608,48.9272217 51.2741002,47.3526262 50.5849642,45.5376344 C50.1963236,44.467871 50,43.2418501 50,41.8675848 L50,35.2767205 L50,35.2767205 Z M58.1053607,45.2531655 C58.8465825,45.6458127 60.0525705,45.8381297 61.7313377,45.8381297 L70.4817617,45.8381297 C74.0396265,45.8381297 75.8185588,44.5680361 75.8185588,42.0118225 L75.8185588,35.1364894 C75.8185588,32.6844475 74.308069,31.3101822 71.2951024,31.0177 L60.9941225,31.0177 C57.9330767,31.3582614 56.4025538,32.7325267 56.4025538,35.1364894 L56.4025538,42.0118225 C56.4065605,43.5864181 56.9674851,44.660188 58.1053607,45.2531655 L58.1053607,45.2531655 Z" id="Shape"></path>
                <path d="M86,64.2564902 L86,57.857943 L106.874409,57.857943 C110.123765,57.857943 111.74644,56.3354333 111.74644,53.2944206 L111.74644,52.236677 L96.3290262,52.236677 C93.424238,52.236677 91.0282885,51.2069797 89.1331646,49.147585 C87.2420474,47.0881903 86.2964887,44.6121088 86.2964887,41.7193404 L86.2964887,22.8562468 C86.2964887,18.3448103 88.2316787,15.3037975 92.1060651,13.7332086 C93.3320861,13.2444029 94.4339023,13 95.4155204,13 L109.021949,13 C114.274607,13 117.263534,15.5482004 117.996743,20.6486078 C118.088895,21.3377438 118.144987,21.8986684 118.144987,22.3393949 L118.144987,54.768851 C118.144987,57.9060222 117.059197,60.3099849 114.903644,61.9767323 C112.948421,63.4952354 110.348135,64.2564902 107.114805,64.2564902 L86,64.2564902 L86,64.2564902 L86,64.2564902 Z M92.695036,41.7834461 C93.1397691,44.4879041 94.5220476,45.846143 96.8458781,45.846143 L108.264701,45.846143 C109.350491,45.846143 110.199891,45.4855486 110.820914,44.772373 C111.441938,44.0591974 111.74644,43.0855925 111.74644,41.855565 L111.74644,23.7497196 C111.74644,20.848938 110.580518,19.3985472 108.264701,19.3985472 L96.4051517,19.3985472 C93.9330767,19.8432803 92.695036,21.2696315 92.695036,23.6776008 L92.695036,41.7834461 L92.695036,41.7834461 L92.695036,41.7834461 Z" id="Shape"></path>
                <rect id="Rectangle-path" x="126" y="0" width="4.01862422" height="30.0134736"></rect>
                <polygon id="Shape" points="122 0 130.061288 0 130.061288 4.03465064 122 4.07471669"></polygon>
                <polygon id="Rectangle-61-Copy-6" points="0 26.0528972 17.0084133 0 23.0035671 0 6.00356713 26.0528968 23.0035671 52.109897 17.0084133 52.109897"></polygon>
                <polygon id="Rectangle-61-Copy-7" transform="translate(147.501784, 26.054948) scale(-1, 1) translate(-147.501784, -26.054948) " points="136.000001 26.0528972 153.008414 0 159.003568 0 142.003568 26.0528968 159.003568 52.109897 153.008414 52.109897"></polygon>
            </g>
        </g>
    </g>
</svg>