<?xml version="1.0" encoding="utf-8"?>
<!-- Generator: Adobe Illustrator 22.1.0, SVG Export Plug-In . SVG Version: 6.00 Build 0)  -->
<svg version="1.1" id="Layer_1" xmlns="http://www.w3.org/2000/svg" xmlns:xlink="http://www.w3.org/1999/xlink" x="0px" y="0px"
	 viewBox="0 0 100 100" style="enable-background:new 0 0 100 100;" xml:space="preserve">
<style type="text/css">
	.st0{fill:#0678BE;}
</style>
<g>
	<path class="st0" d="M85.8,14.4H14.2c-3.4,0-6,2.6-6,6v52h28.4c1.6,0,2.8,0.8,3.4,2h18c0.6-1.2,2-2,3.4-2h30.4v-52
		C91.8,17.2,89.2,14.4,85.8,14.4z M84.8,66.2H15.2V22.6H85v43.6H84.8z"/>
	<path class="st0" d="M98,76.4v2.2c0,3.8-3.2,7-7,7H9c-3.8,0-7-3.2-7-7v-2.2c0-1.2,1-2,2-2h32.4c1.2,0,2,1,2,2V78c0,1.2,1,2,2,2
		h16.8c1.2,0,2-1,2-2v-1.4c0-1.2,1-2,2-2H96C97,74.4,98,75.4,98,76.4z"/>
	<path class="st0" d="M65.2,35C57.6,33.2,53,29.6,51,27.6c-0.6-0.6-1.6-0.6-2.2,0c-2,1.8-6.4,5.6-14.2,7.4c-0.8,0.2-1.4,0.8-1.2,1.6
		c0.2,4.4,1.8,18.8,15.8,24.8c0.4,0.2,0.8,0.2,1.2,0c14.2-5.8,15.8-20.2,15.8-24.8C66.6,36,66,35.2,65.2,35z M52.2,44.8v4.8
		c0,1.2-1,2.2-2.2,2.2s-2.2-1-2.2-2.2v-4.8c-1.2-0.8-2-2-2-3.6c0-2.4,1.8-4.2,4.2-4.2c2.2,0,4.2,1.8,4.2,4.2
		C54,42.8,53.4,44,52.2,44.8z"/>
</g>
</svg>
