<?xml version="1.0" encoding="utf-8"?>
<!-- Generator: Adobe Illustrator 23.1.0, SVG Export Plug-In . SVG Version: 6.00 Build 0)  -->
<svg version="1.1" id="Layer_1" xmlns="http://www.w3.org/2000/svg" xmlns:xlink="http://www.w3.org/1999/xlink" x="0px" y="0px"
	 viewBox="0 0 1280 1000" style="enable-background:new 0 0 1280 1000;" xml:space="preserve">
<style type="text/css">
	.st0{fill:#0678BE;}
</style>
<path class="st0" d="M380.4,286c-50.6-1.7-103.6-44.9-132.4-92.1c-23-38-25.9-77.7-8.1-112.2C274.5,15,345.3,48.9,387.3,69.1
	c8.1,4,15.5,7.5,22.4,10.4c19.6,8.1,51.2,8.1,63.9-4c11.5-10.9,6.9-32.8,0.6-48.9c-4-9.8,1.2-20.7,10.9-24.7s20.7,1.2,24.7,10.9
	c18.4,48.9,5.2,76-9.8,90.4c-28.2,27.1-78.8,23.6-105.3,12.1c-7.5-3.5-15.5-6.9-24.2-10.9c-55.8-27.6-81.7-34-96.1-5.2
	c-15,28.8-4.6,56.4,6.3,74.8c21.9,35.7,69.1,63.3,106.5,66.2c2.3,0,6.3,2.9,5.8,6.3l-3.5,32.2C389.1,278.6,386.8,286,380.4,286z"/>
<path class="st0" d="M534.1,234.8c8.6,2.3,16.7,6.9,23,13.2c22.4,21.9,23,57,0.6,78.8c-22.4,21.9-58.7,22.4-81.2,0.6
	c-22.4-21.9-23-57-0.6-78.8c4.6-4.6,9.8-7.5,15-10.9c2.3-1.2,2.9-3.5,2.9-5.2c2.9-18.4,1.2-38.6,0.6-47.2c0-2.3-3.5-3.5-4.6-3.5
	c-17.3,3.5-35.1,7.5-54.1,12.7c-6.3,1.7-10.4,5.2-11.5,11.5c-27.6,119.7-20.7,190.5-17.8,210.6c0.6,4,2.3,6.9,4.6,9.2
	c25.9,26.5,196.3,198.6,382.7,366.6c4,3.5,13.2,10.4,20.7,4c91.4-36.4,175.2-110.7,234.8-232.8c5.2-6.9,0.6-15.3-3.5-18.7
	C873.1,366.6,692.9,206,662.4,179c-2.9-2.9-6.3-4-9.8-4.6c-14.4-2.3-58.7-6.9-121.4,0.6c-1.2,0-4,2.3-4,5.2
	c-0.6,9.2-1.2,30.5,2.9,48.9C530.6,231.4,531.8,234.2,534.1,234.8z"/>
</svg>
